<svg width="0" height="0" fill="none" style="visibility: hidden; position: absolute;" aria-hidden="true">
    <symbol id="arrow-button-more" width="16" height="14" viewBox="0 0 16 14" fill="none" xmlns="http://www.w3.org/2000/svg">
        <path d="M8.52463 0.624999C9.01364 3.92604 11.5781 6.50868 14.8306 6.97568L15 7L14.8306 7.02432C11.5781 7.49132 9.01364 10.074 8.52463 13.375M14.5953 7L-2.7866e-07 7" stroke="#6E67D2"/>
    </symbol>
    <symbol id="cross-popup" width="14" height="14" viewBox="0 0 14 14" fill="none" xmlns="http://www.w3.org/2000/svg">
        <path d="M1.00297 12.9911L6.99553 7.00148M6.99553 7.00148L13 1M6.99553 7.00148L12.997 13M6.99553 7.00148L1 1.00893" stroke="#393E4D" stroke-linecap="round"/>
    </symbol>
    <symbol id="Eclat" width="60" height="15" viewBox="0 0 60 15" fill="none" xmlns="http://www.w3.org/2000/svg">
        <path d="M5.39939 7.10136V7.86156H1.65705V14.0173H6.73993V14.759H0V0.185415H6.73993V0.945612H1.65705V7.10136H5.39939Z" fill="#BBC1D1"/>
        <path d="M20.4498 1.13103V2.50309C19.2954 1.35352 17.8556 0.77874 16.1302 0.77874C14.2684 0.77874 12.7975 1.33498 11.7176 2.44747C10.6378 3.55995 10.0978 5.11743 10.0978 7.1199C10.0978 8.1953 10.284 9.178 10.6564 10.068C11.0412 10.9456 11.5563 11.6625 12.2017 12.2188C12.8596 12.775 13.6105 13.2077 14.4546 13.5167C15.2986 13.8133 16.1985 13.9617 17.1543 13.9617C18.3583 13.9617 19.4568 13.665 20.4498 13.0717V13.5167C19.2333 14.5056 17.7377 15 15.9627 15C13.8277 15 12.0342 14.3263 10.5819 12.979C9.12966 11.6316 8.40353 9.84549 8.40353 7.62052C8.40353 5.30902 9.14207 3.46106 10.6191 2.07664C12.1086 0.692213 13.8898 0 15.9627 0C17.8618 0 19.3575 0.377009 20.4498 1.13103Z" fill="#BBC1D1"/>
        <path d="M24.665 0.185415V14.0173H30.5112V14.759H23.0079V0.185415H24.665Z" fill="#BBC1D1"/>
        <path d="M43.6507 14.759H41.8447L39.5919 9.15946H34.7883L32.554 14.759H31.6603L37.5624 0.0556246H37.7114L43.6507 14.759ZM37.1714 3.17058L35.0862 8.39926H39.2753L37.1714 3.17058Z" fill="#BBC1D1"/>
        <path d="M56.1534 0.185415V0.945612H51.1077V14.759H49.4507V0.945612H44.3864V0.185415H56.1534Z" fill="#BBC1D1"/>
        <path d="M56.9375 13.882C56.9375 13.5606 57.043 13.2949 57.254 13.0847C57.4774 12.8622 57.7443 12.751 58.0546 12.751C58.3773 12.751 58.6442 12.8622 58.8552 13.0847C59.0786 13.3072 59.1903 13.573 59.1903 13.882C59.1903 14.191 59.0786 14.4568 58.8552 14.6793C58.6442 14.8894 58.3773 14.9945 58.0546 14.9945C57.7319 14.9945 57.465 14.8894 57.254 14.6793C57.043 14.4568 56.9375 14.191 56.9375 13.882Z" fill="#BBC1D1"/>
    </symbol>
    <symbol id="header-menu" width="40" height="17" viewBox="0 0 40 17" fill="none" xmlns="http://www.w3.org/2000/svg">
        <line y1="8.5" x2="40" y2="8.5" stroke="#6E67D2"/>
        <line y1="16.5" x2="40" y2="16.5" stroke="#6E67D2"/>
        <line y1="0.5" x2="40" y2="0.5" stroke="#6E67D2"/>
    </symbol>
    <symbol id="lk" width="18" height="18" viewBox="0 0 18 18" fill="none" xmlns="http://www.w3.org/2000/svg">
        <g clip-path="url(#clip0_29_1631__lk)">
            <circle cx="8.99844" cy="5.00039" r="4.1" stroke="#393E4D"/>
            <path d="M0.5 18.5996C0.5 17.4834 0.719859 16.3781 1.14702 15.3468C1.57419 14.3155 2.20029 13.3785 2.98959 12.5892C3.77889 11.7999 4.71592 11.1738 5.74719 10.7466C6.77846 10.3195 7.88376 10.0996 9 10.0996C10.1162 10.0996 11.2215 10.3195 12.2528 10.7466C13.2841 11.1738 14.2211 11.7999 15.0104 12.5892C15.7997 13.3785 16.4258 14.3155 16.853 15.3468C17.2801 16.3781 17.5 17.4834 17.5 18.5996" stroke="#393E4D"/>
        </g>
        <defs>
            <clipPath id="clip0_29_1631__lk">
                <rect width="18" height="18" fill="white"/>
            </clipPath>
        </defs>
    </symbol>
    <symbol id="logo" width="124" height="44" viewBox="0 0 124 44" fill="none" xmlns="http://www.w3.org/2000/svg">
        <path d="M39.1621 25.7627V41.9954L27.8593 42.0029V8.03904H23.8691V0.759277H46.5495C49.2818 0.759277 51.5733 1.09642 53.4214 1.7757C55.267 2.45248 56.754 3.38399 57.8872 4.55774C59.013 5.72899 59.8325 7.07506 60.3231 8.58596C60.8213 10.1043 61.0679 11.7001 61.0679 13.3709C61.0679 14.3273 60.9558 15.3088 60.7067 16.3277C60.4701 17.3441 60.089 18.3306 59.5485 19.2871C59.013 20.2436 58.3381 21.1201 57.5261 21.9218C56.7091 22.7184 55.7104 23.3528 54.5223 23.8322L59.825 35.0079L64.6395 35.6622V41.8156C64.0468 42.0154 63.3892 42.1927 62.6694 42.3525C61.9546 42.5049 61.2646 42.6397 60.5897 42.7346C59.9147 42.837 59.2721 42.912 58.6544 42.9444C58.0442 42.9844 57.5385 43.0093 57.1425 43.0093C55.0379 43.0093 53.4488 42.5598 52.3753 41.6633C51.3018 40.7642 50.3728 39.4232 49.5782 37.6351L44.4025 25.7602H39.1621V25.7627ZM45.1697 17.2792C47.9792 16.5725 50.0913 14.4622 50.0913 11.6427C50.0913 8.12145 46.5819 6.0062 43.065 5.30195C43.7649 6.0062 45.8721 6.70795 45.1697 8.8232C40.9579 9.52495 35.3314 10.936 38.8458 19.387C39.5482 19.387 40.9554 20.0862 41.6603 20.0862C43.065 19.3895 43.065 17.2792 45.1697 17.2792Z" fill="white"/>
        <path d="M70.0761 41.9954V8.03903H65.7871V0.759277H81.5608V41.9954H70.0761Z" fill="white"/>
        <path d="M4.29149 41.9954V8.03903H0V0.759277H15.7761V34.7132H19.9456V41.9954H4.29149Z" fill="white"/>
        <path d="M96.8907 28.9876L96.9555 33.3429C97.5483 33.5877 98.1759 33.775 98.8584 33.9123C99.5309 34.0497 100.201 34.172 100.881 34.2694C101.551 34.3718 102.186 34.4418 102.781 34.4742C103.382 34.5167 103.892 34.5392 104.328 34.5392C106.754 34.5392 108.448 34.1396 109.419 33.3429C110.393 32.5463 110.884 31.5898 110.884 30.4785C110.884 29.4845 110.602 28.7328 110.047 28.2134C109.486 27.6964 108.732 27.2819 107.783 26.9597C105.008 26.0457 102.46 25.1991 100.136 24.4199C97.8173 23.6457 95.8172 22.7817 94.1584 21.8252C92.4872 20.8687 91.1995 19.7199 90.2854 18.3639C89.3713 17.0128 88.918 15.2821 88.918 13.1744C88.918 9.11619 90.3551 5.94456 93.2294 3.6545C96.1111 1.36443 100.383 0.223145 106.054 0.223145C107.165 0.223145 108.348 0.275589 109.601 0.370488C110.849 0.465387 112.101 0.632709 113.347 0.844983C114.6 1.06725 115.818 1.35444 117.008 1.71156C118.196 2.06868 119.307 2.49323 120.341 2.96023C120.341 4.72086 120.348 6.44403 120.366 8.15471C120.391 9.87288 120.398 11.5985 120.398 13.3517H112.485C112.485 12.6324 112.47 11.9207 112.458 11.204C112.43 10.4822 112.43 9.79297 112.43 9.11619C111.628 8.80152 110.672 8.55678 109.536 8.40195C108.413 8.24212 107.464 8.15721 106.712 8.15721C104.607 8.15721 103.12 8.5393 102.251 9.2935C101.376 10.0477 100.938 10.9218 100.938 11.9232C100.938 12.5975 101.185 13.1919 101.655 13.7113C102.129 14.2283 102.761 14.6853 103.558 15.0823C104.353 15.4819 105.252 15.8465 106.263 16.1837C107.272 16.5258 108.321 16.848 109.392 17.1701C111.412 17.7695 113.292 18.3963 115.016 19.0506C116.742 19.7049 118.254 20.5091 119.539 21.4681C120.829 22.4245 121.838 23.5883 122.572 24.9543C123.3 26.3279 123.673 28.0311 123.673 30.0639C123.673 34.1596 122.127 37.2962 119.036 39.4589C115.94 41.6291 111.272 42.708 105.05 42.708C102.467 42.708 99.7999 42.5032 97.0427 42.0836C94.2904 41.6666 91.6627 40.9398 89.1621 39.9059C89.1621 38.1153 89.1446 36.3023 89.1322 34.4717C89.1023 32.6412 89.0998 30.8181 89.0998 28.9851H96.8907V28.9876Z" fill="white"/>
        <path d="M39.1621 25.7661V41.9988L27.8593 42.0063V8.04245H23.8691V0.762695H46.5495C49.2818 0.762695 51.5733 1.09984 53.4214 1.77911C55.267 2.45589 56.754 3.3874 57.8872 4.56116C59.013 5.73241 59.8325 7.07848 60.3231 8.58937C60.8213 10.1078 61.0679 11.7036 61.0679 13.3743C61.0679 14.3308 60.9558 15.3122 60.7067 16.3311C60.4701 17.3476 60.089 18.334 59.5485 19.2905C59.013 20.247 58.3381 21.1235 57.5261 21.9252C56.7091 22.7218 55.7104 23.3562 54.5223 23.8382L59.825 35.0138L64.6395 35.6681V41.8215C64.0468 42.0188 63.3892 42.1986 62.6694 42.3585C61.9546 42.5108 61.2646 42.6457 60.5897 42.7406C59.9147 42.8429 59.2721 42.9179 58.6544 42.9503C58.0442 42.9903 57.5385 43.0153 57.1425 43.0153C55.0379 43.0153 53.4488 42.5657 52.3753 41.6692C51.3018 40.7701 50.3728 39.4291 49.5782 37.641L44.4025 25.7686H39.1621V25.7661ZM45.1697 17.2801C47.9792 16.5734 50.0913 14.4631 50.0913 11.6436C50.0913 8.12237 46.5819 6.00712 43.065 5.30287C43.7649 6.00712 45.8721 6.70887 45.1697 8.82412C40.9579 9.52588 35.3314 10.9369 38.8458 19.3879C39.5482 19.3879 40.9554 20.0871 41.6603 20.0871C43.065 19.3904 43.065 17.2801 45.1697 17.2801Z" fill="white"/>
        <path d="M70.0761 41.9988V8.03996H65.7871V0.762695H81.5608V41.9988H70.0761Z" fill="white"/>
        <path d="M4.29149 41.9988V8.03996H0V0.762695H15.7761V34.7141H19.9456V41.9988H4.29149Z" fill="white"/>
        <path d="M96.8907 28.987L96.9555 33.3424C97.5483 33.5871 98.1759 33.7744 98.8584 33.9118C99.5309 34.0491 100.201 34.1715 100.881 34.2689C101.551 34.3713 102.186 34.4437 102.781 34.4737C103.382 34.5161 103.892 34.5361 104.328 34.5361C106.754 34.5361 108.448 34.1365 109.419 33.3399C110.393 32.5432 110.884 31.5867 110.884 30.4754C110.884 29.4815 110.602 28.7298 110.047 28.2103C109.486 27.6934 108.732 27.2788 107.783 26.9567C105.008 26.0426 102.46 25.1985 100.136 24.4194C97.8173 23.6427 95.8172 22.7811 94.1584 21.8246C92.4872 20.8706 91.1995 19.7194 90.2854 18.3633C89.3713 17.0097 88.918 15.2791 88.918 13.1738C88.918 9.11564 90.3551 5.94651 93.2294 3.65395C96.1111 1.36389 100.383 0.225098 106.054 0.225098C107.165 0.225098 108.348 0.277542 109.601 0.372441C110.849 0.46734 112.101 0.634662 113.347 0.846936C114.6 1.0692 115.818 1.35639 117.008 1.71351C118.196 2.07063 119.307 2.49518 120.341 2.96219C120.341 4.72281 120.348 6.44598 120.366 8.15666C120.391 9.87484 120.398 11.603 120.398 13.3536H112.485C112.485 12.6344 112.47 11.9227 112.458 11.2059C112.43 10.4842 112.43 9.79242 112.43 9.11564C111.628 8.80098 110.672 8.55624 109.536 8.4014C108.413 8.24157 107.464 8.15666 106.712 8.15666C104.607 8.15666 103.12 8.53876 102.251 9.29295C101.376 10.0472 100.938 10.9212 100.938 11.9227C100.938 12.5944 101.185 13.1913 101.655 13.7108C102.129 14.2277 102.761 14.6847 103.558 15.0818C104.353 15.4814 105.252 15.846 106.263 16.1831C107.272 16.5253 108.321 16.8474 109.392 17.1696C111.412 17.7664 113.292 18.3958 115.016 19.0501C116.742 19.7044 118.254 20.5085 119.539 21.4675C120.829 22.4215 121.838 23.5878 122.572 24.9538C123.3 26.3273 123.673 28.0305 123.673 30.0609C123.673 34.1565 122.127 37.2932 119.036 39.4559C115.94 41.6261 111.272 42.7074 105.05 42.7074C102.467 42.7074 99.7999 42.5026 97.0427 42.0831C94.2904 41.6635 91.6627 40.9393 89.1621 39.9054C89.1621 38.1148 89.1446 36.3017 89.1322 34.4712C89.1023 32.6406 89.0998 30.8176 89.0998 28.9845H96.8907V28.987Z" fill="white"/>
    </symbol>
    <symbol id="loupe" width="17" height="19" viewBox="0 0 17 19" fill="none" xmlns="http://www.w3.org/2000/svg">
        <rect x="0.5" y="0.587891" width="14.9415" height="14.9415" rx="7.47073" stroke="#393E4D"/>
        <path d="M12.8809 14.3232L15.9742 17.9123" stroke="#393E4D" stroke-linecap="square"/>
    </symbol>
    <symbol id="main-about-1" width="165" height="105" viewBox="0 0 165 105" fill="none" xmlns="http://www.w3.org/2000/svg">
        <rect x="0.5" y="0.5" width="164" height="104" rx="9.5" stroke="#6E67D2"/>
        <circle cx="35.5" cy="71.5" r="13" stroke="#6E67D2"/>
        <line x1="35.5" y1="59" x2="35.5" y2="84" stroke="#6E67D2"/>
        <circle cx="35.5" cy="34.5" r="13" stroke="#6E67D2"/>
        <line x1="35.5" y1="22" x2="35.5" y2="47" stroke="#6E67D2"/>
        <circle cx="82.5" cy="71.5" r="13" stroke="#6E67D2"/>
        <line x1="82.5" y1="59" x2="82.5" y2="84" stroke="#6E67D2"/>
        <circle cx="82.5" cy="34.5" r="13" stroke="#6E67D2"/>
        <line x1="82.5" y1="22" x2="82.5" y2="47" stroke="#6E67D2"/>
        <circle cx="129.5" cy="71.5" r="13" stroke="#6E67D2"/>
        <line x1="129.5" y1="59" x2="129.5" y2="84" stroke="#6E67D2"/>
        <circle cx="129.5" cy="34.5" r="13" stroke="#6E67D2"/>
        <line x1="129.5" y1="22" x2="129.5" y2="47" stroke="#6E67D2"/>
    </symbol>
    <symbol id="main-about-2" width="165" height="105" viewBox="0 0 165 105" fill="none" xmlns="http://www.w3.org/2000/svg">
        <path d="M17.5195 14.8436C17.9206 12.7176 19.7779 11.178 21.9414 11.178H125.77C127.934 11.178 129.791 12.7176 130.192 14.8436L146.102 99.1657C146.625 101.937 144.5 104.5 141.68 104.5H6.03161C3.21191 104.5 1.08684 101.937 1.60964 99.1657L17.5195 14.8436Z" fill="#F5F6F9" stroke="#6E67D2"/>
        <circle cx="46.9336" cy="23.5762" r="3.5" stroke="#6E67D2"/>
        <path d="M46.7695 26.6949C46.7695 23.255 47.4471 19.8487 48.7635 16.6706C50.0799 13.4924 52.0094 10.6047 54.4418 8.17231C56.8743 5.73989 59.762 3.81039 62.9401 2.49397C66.1182 1.17755 69.5245 0.5 72.9644 0.5C76.4044 0.5 79.8107 1.17755 82.9888 2.49397C86.1669 3.81039 89.0546 5.73989 91.487 8.17231C93.9195 10.6047 95.849 13.4924 97.1654 16.6706C98.4818 19.8487 99.1594 23.255 99.1594 26.6949" stroke="#6E67D2"/>
        <circle cx="98.543" cy="23.5762" r="3.5" stroke="#6E67D2"/>
        <path d="M92.7228 56.1657C93.124 54.0396 94.9813 52.5 97.1448 52.5H151.855C154.019 52.5 155.876 54.0396 156.277 56.1657L164.39 99.1657C164.913 101.936 162.788 104.5 159.968 104.5H89.0316C86.2119 104.5 84.0868 101.936 84.6096 99.1657L92.7228 56.1657Z" fill="#F5F6F9" stroke="#6E67D2"/>
        <circle cx="110" cy="61" r="3.5" stroke="#6E67D2"/>
        <path d="M109.5 64.5C109.5 62.5302 109.888 60.5796 110.642 58.7597C111.396 56.9399 112.501 55.2863 113.893 53.8934C115.286 52.5005 116.94 51.3956 118.76 50.6418C120.58 49.888 122.53 49.5 124.5 49.5C126.47 49.5 128.42 49.888 130.24 50.6418C132.06 51.3956 133.714 52.5005 135.107 53.8934C136.499 55.2863 137.604 56.9399 138.358 58.7597C139.112 60.5796 139.5 62.5302 139.5 64.5" stroke="#6E67D2"/>
        <circle cx="139" cy="61" r="3.5" stroke="#6E67D2"/>
    </symbol>
    <symbol id="main-about-3" width="165" height="105" viewBox="0 0 165 105" fill="none" xmlns="http://www.w3.org/2000/svg">
        <rect x="0.5" y="0.5" width="164" height="104" rx="9.5" stroke="#6E67D2"/>
        <circle cx="14" cy="14" r="3.5" stroke="#6E67D2"/>
        <circle cx="25" cy="14" r="3.5" stroke="#6E67D2"/>
        <circle cx="36" cy="14" r="3.5" stroke="#6E67D2"/>
        <path d="M50.7228 33.1657C51.124 31.0396 52.9813 29.5 55.1448 29.5H109.855C112.019 29.5 113.876 31.0396 114.277 33.1657L122.39 76.1657C122.913 78.9365 120.788 81.5 117.968 81.5H47.0316C44.2119 81.5 42.0868 78.9365 42.6096 76.1657L50.7228 33.1657Z" stroke="#6E67D2"/>
        <circle cx="67" cy="37" r="3.5" stroke="#6E67D2"/>
        <path d="M66.5 40.5C66.5 38.3989 66.9139 36.3183 67.7179 34.3771C68.522 32.4359 69.7006 30.672 71.1863 29.1863C72.672 27.7006 74.4359 26.522 76.3771 25.7179C78.3183 24.9139 80.3988 24.5 82.5 24.5C84.6011 24.5 86.6817 24.9139 88.6229 25.7179C90.5641 26.522 92.328 27.7006 93.8137 29.1863C95.2994 30.672 96.478 32.4359 97.2821 34.3771C98.0861 36.3183 98.5 38.3989 98.5 40.5" stroke="#6E67D2"/>
        <circle cx="98" cy="37" r="3.5" stroke="#6E67D2"/>
    </symbol>
    <symbol id="phone" width="18" height="18" viewBox="0 0 18 18" fill="none" xmlns="http://www.w3.org/2000/svg">
        <path d="M6.37858 13.9749C10.2757 17.8721 13.271 18.8501 16.8013 15.3198C17.3538 14.7526 17.8706 14.0356 17.1375 13.3025L14.2796 11.1171C13.3778 10.6319 13.0254 10.9769 12.5985 11.4533C11.0384 13.1948 9.35516 12.6169 8.22774 11.4533L6.54667 9.77224C5.3831 8.64484 4.8052 6.96157 6.54667 5.40144C7.0231 4.97463 7.36809 4.62225 6.88288 3.72036L4.69748 0.862536C3.96439 0.129438 3.24745 0.646161 2.6802 1.19875C-0.850051 4.72901 0.127932 7.72431 4.02506 11.6214L6.37858 13.9749Z" stroke="white"/>
    </symbol>
    <symbol id="point" width="13" height="19" viewBox="0 0 13 19" fill="none" xmlns="http://www.w3.org/2000/svg">
        <path d="M6.49991 17L6.09186 17.289L6.49991 17.8652L6.90796 17.289L6.49991 17ZM6.49991 17C6.90796 17.289 6.90801 17.2889 6.90807 17.2888L6.90831 17.2885L6.90916 17.2873L6.91235 17.2827L6.92456 17.2654L6.97142 17.1986C7.0123 17.1402 7.07201 17.0544 7.14787 16.9444C7.29957 16.7244 7.51592 16.4074 7.7754 16.0179C8.29407 15.2395 8.98641 14.1697 9.6795 13.0064C10.3716 11.8448 11.0696 10.5813 11.5962 9.41708C12.113 8.27446 12.5 7.15338 12.5 6.30399C12.5 3.08161 9.79638 0.5 6.49991 0.5C3.20343 0.5 0.5 3.08163 0.5 6.30399C0.5 7.15338 0.887016 8.27445 1.40379 9.41707C1.93034 10.5813 2.62835 11.8448 3.32041 13.0064C4.01348 14.1697 4.7058 15.2395 5.22445 16.0179C5.48392 16.4074 5.70027 16.7244 5.85196 16.9444C5.92782 17.0544 5.98753 17.1402 6.02841 17.1986L6.07526 17.2654L6.08747 17.2827L6.09066 17.2873L6.09151 17.2885L6.09175 17.2888C6.09182 17.2889 6.09186 17.289 6.49991 17ZM6.50026 8.51961C5.11476 8.51961 4.01811 7.43618 4.01811 6.14378C4.01811 4.8511 5.11472 3.76796 6.50026 3.76796C7.8856 3.76796 8.98224 4.85108 8.98224 6.14378C8.98224 7.43618 7.88541 8.51961 6.50026 8.51961Z" stroke="white"/>
    </symbol>
</svg>