<svg width="35" height="35" viewBox="0 0 35 35" fill="none" xmlns="http://www.w3.org/2000/svg">
<path d="M16.9622 27.0883L29.3914 14.7994C31.6063 12.6092 32.4714 9.4173 31.6606 6.42553C30.8498 3.434 28.4865 1.09714 25.4606 0.295496C22.4349 -0.505893 19.2066 0.3492 16.9912 2.53931L4.49249 14.897C3.01313 16.358 1.94902 18.1785 1.40685 20.1753C0.864919 22.1721 0.864426 24.2746 1.40512 26.2719C1.94606 28.2689 3.00919 30.09 4.48779 31.5517C5.96646 33.0137 7.80824 34.0648 9.82807 34.5994C11.8479 35.1342 13.9746 35.1335 15.9942 34.5974C18.0138 34.0616 19.8549 33.0093 21.3326 31.5466L34 19.0221L31.5869 16.6362L18.9194 29.1607C16.7734 31.2825 13.6456 32.1112 10.7142 31.3347C7.78258 30.5579 5.49293 28.2941 4.7073 25.3958C3.92167 22.4973 4.75989 19.4047 6.90562 17.2832L19.4043 4.92553C20.7573 3.58809 22.7292 3.06566 24.5772 3.55509C26.4252 4.04477 27.8688 5.47208 28.3638 7.2992C28.8591 9.12632 28.3307 11.0761 26.9777 12.4135L14.5486 24.7024L16.9622 27.0883Z" fill="#6E67D2"/>
</svg>
