<svg width="22" height="21" viewBox="0 0 22 21" fill="none" xmlns="http://www.w3.org/2000/svg">
<g clip-path="url(#clip0_31_6228)">
<path d="M3.83224 17.3334C5.72402 19.2252 8.23976 20.2672 10.9151 20.2672C13.5904 20.2672 16.1062 19.2252 17.9979 17.3334C19.8897 15.4416 20.9317 12.9259 20.9317 10.2506C20.9317 7.57521 19.8897 5.05946 17.9979 3.16769C16.1062 1.27591 13.5904 0.233887 10.9151 0.233887C8.23976 0.233887 5.72402 1.27591 3.83224 3.16769C1.94047 5.05946 0.898438 7.57521 0.898438 10.2506C0.898438 12.9259 1.94047 15.4416 3.83224 17.3334ZM1.89177 10.2506C1.89177 5.27517 5.93973 1.22722 10.9151 1.22722C15.8904 1.22722 19.9384 5.27517 19.9384 10.2506C19.9384 15.2259 15.8904 19.2739 10.9151 19.2739C5.93973 19.2739 1.89177 15.2259 1.89177 10.2506Z" fill="#6E67D2" stroke="#6E67D2" stroke-width="0.2"/>
<path d="M13.7446 13.7756C13.8416 13.8725 13.9688 13.921 14.0958 13.921C14.2228 13.921 14.35 13.8725 14.447 13.7757C14.6409 13.5817 14.641 13.2671 14.447 13.0732L11.4191 10.0453V3.90438C11.4191 3.63007 11.1967 3.40771 10.9225 3.40771C10.6482 3.40771 10.4258 3.63007 10.4258 3.90438V10.251C10.4258 10.3828 10.4782 10.5091 10.5713 10.6022L13.7446 13.7756Z" fill="#6E67D2" stroke="#6E67D2" stroke-width="0.2"/>
</g>
<defs>
<clipPath id="clip0_31_6228">
<rect width="22" height="21" fill="white"/>
</clipPath>
</defs>
</svg>
