<svg width="60" height="15" viewBox="0 0 60 15" fill="none" xmlns="http://www.w3.org/2000/svg">
<path d="M5.39939 7.10136V7.86156H1.65705V14.0173H6.73993V14.759H0V0.185415H6.73993V0.945612H1.65705V7.10136H5.39939Z" fill="#BBC1D1"/>
<path d="M20.4498 1.13103V2.50309C19.2954 1.35352 17.8556 0.77874 16.1302 0.77874C14.2684 0.77874 12.7975 1.33498 11.7176 2.44747C10.6378 3.55995 10.0978 5.11743 10.0978 7.1199C10.0978 8.1953 10.284 9.178 10.6564 10.068C11.0412 10.9456 11.5563 11.6625 12.2017 12.2188C12.8596 12.775 13.6105 13.2077 14.4546 13.5167C15.2986 13.8133 16.1985 13.9617 17.1543 13.9617C18.3583 13.9617 19.4568 13.665 20.4498 13.0717V13.5167C19.2333 14.5056 17.7377 15 15.9627 15C13.8277 15 12.0342 14.3263 10.5819 12.979C9.12966 11.6316 8.40353 9.84549 8.40353 7.62052C8.40353 5.30902 9.14207 3.46106 10.6191 2.07664C12.1086 0.692213 13.8898 0 15.9627 0C17.8618 0 19.3575 0.377009 20.4498 1.13103Z" fill="#BBC1D1"/>
<path d="M24.665 0.185415V14.0173H30.5112V14.759H23.0079V0.185415H24.665Z" fill="#BBC1D1"/>
<path d="M43.6507 14.759H41.8447L39.5919 9.15946H34.7883L32.554 14.759H31.6603L37.5624 0.0556246H37.7114L43.6507 14.759ZM37.1714 3.17058L35.0862 8.39926H39.2753L37.1714 3.17058Z" fill="#BBC1D1"/>
<path d="M56.1534 0.185415V0.945612H51.1077V14.759H49.4507V0.945612H44.3864V0.185415H56.1534Z" fill="#BBC1D1"/>
<path d="M56.9375 13.882C56.9375 13.5606 57.043 13.2949 57.254 13.0847C57.4774 12.8622 57.7443 12.751 58.0546 12.751C58.3773 12.751 58.6442 12.8622 58.8552 13.0847C59.0786 13.3072 59.1903 13.573 59.1903 13.882C59.1903 14.191 59.0786 14.4568 58.8552 14.6793C58.6442 14.8894 58.3773 14.9945 58.0546 14.9945C57.7319 14.9945 57.465 14.8894 57.254 14.6793C57.043 14.4568 56.9375 14.191 56.9375 13.882Z" fill="#BBC1D1"/>
</svg>
