<svg width="124" height="44" viewBox="0 0 124 44" fill="none" xmlns="http://www.w3.org/2000/svg">
<path d="M39.1621 25.7627V41.9954L27.8593 42.0029V8.03904H23.8691V0.759277H46.5495C49.2818 0.759277 51.5733 1.09642 53.4214 1.7757C55.267 2.45248 56.754 3.38399 57.8872 4.55774C59.013 5.72899 59.8325 7.07506 60.3231 8.58596C60.8213 10.1043 61.0679 11.7001 61.0679 13.3709C61.0679 14.3273 60.9558 15.3088 60.7067 16.3277C60.4701 17.3441 60.089 18.3306 59.5485 19.2871C59.013 20.2436 58.3381 21.1201 57.5261 21.9218C56.7091 22.7184 55.7104 23.3528 54.5223 23.8322L59.825 35.0079L64.6395 35.6622V41.8156C64.0468 42.0154 63.3892 42.1927 62.6694 42.3525C61.9546 42.5049 61.2646 42.6397 60.5897 42.7346C59.9147 42.837 59.2721 42.912 58.6544 42.9444C58.0442 42.9844 57.5385 43.0093 57.1425 43.0093C55.0379 43.0093 53.4488 42.5598 52.3753 41.6633C51.3018 40.7642 50.3728 39.4232 49.5782 37.6351L44.4025 25.7602H39.1621V25.7627ZM45.1697 17.2792C47.9792 16.5725 50.0913 14.4622 50.0913 11.6427C50.0913 8.12145 46.5819 6.0062 43.065 5.30195C43.7649 6.0062 45.8721 6.70795 45.1697 8.8232C40.9579 9.52495 35.3314 10.936 38.8458 19.387C39.5482 19.387 40.9554 20.0862 41.6603 20.0862C43.065 19.3895 43.065 17.2792 45.1697 17.2792Z" fill="white"/>
<path d="M70.0761 41.9954V8.03903H65.7871V0.759277H81.5608V41.9954H70.0761Z" fill="white"/>
<path d="M4.29149 41.9954V8.03903H0V0.759277H15.7761V34.7132H19.9456V41.9954H4.29149Z" fill="white"/>
<path d="M96.8907 28.9876L96.9555 33.3429C97.5483 33.5877 98.1759 33.775 98.8584 33.9123C99.5309 34.0497 100.201 34.172 100.881 34.2694C101.551 34.3718 102.186 34.4418 102.781 34.4742C103.382 34.5167 103.892 34.5392 104.328 34.5392C106.754 34.5392 108.448 34.1396 109.419 33.3429C110.393 32.5463 110.884 31.5898 110.884 30.4785C110.884 29.4845 110.602 28.7328 110.047 28.2134C109.486 27.6964 108.732 27.2819 107.783 26.9597C105.008 26.0457 102.46 25.1991 100.136 24.4199C97.8173 23.6457 95.8172 22.7817 94.1584 21.8252C92.4872 20.8687 91.1995 19.7199 90.2854 18.3639C89.3713 17.0128 88.918 15.2821 88.918 13.1744C88.918 9.11619 90.3551 5.94456 93.2294 3.6545C96.1111 1.36443 100.383 0.223145 106.054 0.223145C107.165 0.223145 108.348 0.275589 109.601 0.370488C110.849 0.465387 112.101 0.632709 113.347 0.844983C114.6 1.06725 115.818 1.35444 117.008 1.71156C118.196 2.06868 119.307 2.49323 120.341 2.96023C120.341 4.72086 120.348 6.44403 120.366 8.15471C120.391 9.87288 120.398 11.5985 120.398 13.3517H112.485C112.485 12.6324 112.47 11.9207 112.458 11.204C112.43 10.4822 112.43 9.79297 112.43 9.11619C111.628 8.80152 110.672 8.55678 109.536 8.40195C108.413 8.24212 107.464 8.15721 106.712 8.15721C104.607 8.15721 103.12 8.5393 102.251 9.2935C101.376 10.0477 100.938 10.9218 100.938 11.9232C100.938 12.5975 101.185 13.1919 101.655 13.7113C102.129 14.2283 102.761 14.6853 103.558 15.0823C104.353 15.4819 105.252 15.8465 106.263 16.1837C107.272 16.5258 108.321 16.848 109.392 17.1701C111.412 17.7695 113.292 18.3963 115.016 19.0506C116.742 19.7049 118.254 20.5091 119.539 21.4681C120.829 22.4245 121.838 23.5883 122.572 24.9543C123.3 26.3279 123.673 28.0311 123.673 30.0639C123.673 34.1596 122.127 37.2962 119.036 39.4589C115.94 41.6291 111.272 42.708 105.05 42.708C102.467 42.708 99.7999 42.5032 97.0427 42.0836C94.2904 41.6666 91.6627 40.9398 89.1621 39.9059C89.1621 38.1153 89.1446 36.3023 89.1322 34.4717C89.1023 32.6412 89.0998 30.8181 89.0998 28.9851H96.8907V28.9876Z" fill="white"/>
<path d="M39.1621 25.7661V41.9988L27.8593 42.0063V8.04245H23.8691V0.762695H46.5495C49.2818 0.762695 51.5733 1.09984 53.4214 1.77911C55.267 2.45589 56.754 3.3874 57.8872 4.56116C59.013 5.73241 59.8325 7.07848 60.3231 8.58937C60.8213 10.1078 61.0679 11.7036 61.0679 13.3743C61.0679 14.3308 60.9558 15.3122 60.7067 16.3311C60.4701 17.3476 60.089 18.334 59.5485 19.2905C59.013 20.247 58.3381 21.1235 57.5261 21.9252C56.7091 22.7218 55.7104 23.3562 54.5223 23.8382L59.825 35.0138L64.6395 35.6681V41.8215C64.0468 42.0188 63.3892 42.1986 62.6694 42.3585C61.9546 42.5108 61.2646 42.6457 60.5897 42.7406C59.9147 42.8429 59.2721 42.9179 58.6544 42.9503C58.0442 42.9903 57.5385 43.0153 57.1425 43.0153C55.0379 43.0153 53.4488 42.5657 52.3753 41.6692C51.3018 40.7701 50.3728 39.4291 49.5782 37.641L44.4025 25.7686H39.1621V25.7661ZM45.1697 17.2801C47.9792 16.5734 50.0913 14.4631 50.0913 11.6436C50.0913 8.12237 46.5819 6.00712 43.065 5.30287C43.7649 6.00712 45.8721 6.70887 45.1697 8.82412C40.9579 9.52588 35.3314 10.9369 38.8458 19.3879C39.5482 19.3879 40.9554 20.0871 41.6603 20.0871C43.065 19.3904 43.065 17.2801 45.1697 17.2801Z" fill="white"/>
<path d="M70.0761 41.9988V8.03996H65.7871V0.762695H81.5608V41.9988H70.0761Z" fill="white"/>
<path d="M4.29149 41.9988V8.03996H0V0.762695H15.7761V34.7141H19.9456V41.9988H4.29149Z" fill="white"/>
<path d="M96.8907 28.987L96.9555 33.3424C97.5483 33.5871 98.1759 33.7744 98.8584 33.9118C99.5309 34.0491 100.201 34.1715 100.881 34.2689C101.551 34.3713 102.186 34.4437 102.781 34.4737C103.382 34.5161 103.892 34.5361 104.328 34.5361C106.754 34.5361 108.448 34.1365 109.419 33.3399C110.393 32.5432 110.884 31.5867 110.884 30.4754C110.884 29.4815 110.602 28.7298 110.047 28.2103C109.486 27.6934 108.732 27.2788 107.783 26.9567C105.008 26.0426 102.46 25.1985 100.136 24.4194C97.8173 23.6427 95.8172 22.7811 94.1584 21.8246C92.4872 20.8706 91.1995 19.7194 90.2854 18.3633C89.3713 17.0097 88.918 15.2791 88.918 13.1738C88.918 9.11564 90.3551 5.94651 93.2294 3.65395C96.1111 1.36389 100.383 0.225098 106.054 0.225098C107.165 0.225098 108.348 0.277542 109.601 0.372441C110.849 0.46734 112.101 0.634662 113.347 0.846936C114.6 1.0692 115.818 1.35639 117.008 1.71351C118.196 2.07063 119.307 2.49518 120.341 2.96219C120.341 4.72281 120.348 6.44598 120.366 8.15666C120.391 9.87484 120.398 11.603 120.398 13.3536H112.485C112.485 12.6344 112.47 11.9227 112.458 11.2059C112.43 10.4842 112.43 9.79242 112.43 9.11564C111.628 8.80098 110.672 8.55624 109.536 8.4014C108.413 8.24157 107.464 8.15666 106.712 8.15666C104.607 8.15666 103.12 8.53876 102.251 9.29295C101.376 10.0472 100.938 10.9212 100.938 11.9227C100.938 12.5944 101.185 13.1913 101.655 13.7108C102.129 14.2277 102.761 14.6847 103.558 15.0818C104.353 15.4814 105.252 15.846 106.263 16.1831C107.272 16.5253 108.321 16.8474 109.392 17.1696C111.412 17.7664 113.292 18.3958 115.016 19.0501C116.742 19.7044 118.254 20.5085 119.539 21.4675C120.829 22.4215 121.838 23.5878 122.572 24.9538C123.3 26.3273 123.673 28.0305 123.673 30.0609C123.673 34.1565 122.127 37.2932 119.036 39.4559C115.94 41.6261 111.272 42.7074 105.05 42.7074C102.467 42.7074 99.7999 42.5026 97.0427 42.0831C94.2904 41.6635 91.6627 40.9393 89.1621 39.9054C89.1621 38.1148 89.1446 36.3017 89.1322 34.4712C89.1023 32.6406 89.0998 30.8176 89.0998 28.9845H96.8907V28.987Z" fill="white"/>
</svg>
