<svg width="165" height="105" viewBox="0 0 165 105" fill="none" xmlns="http://www.w3.org/2000/svg">
<path d="M17.5195 14.8436C17.9206 12.7176 19.7779 11.178 21.9414 11.178H125.77C127.934 11.178 129.791 12.7176 130.192 14.8436L146.102 99.1657C146.625 101.937 144.5 104.5 141.68 104.5H6.03161C3.21191 104.5 1.08684 101.937 1.60964 99.1657L17.5195 14.8436Z" fill="#F5F6F9" stroke="#6E67D2"/>
<circle cx="46.9336" cy="23.5762" r="3.5" stroke="#6E67D2"/>
<path d="M46.7695 26.6949C46.7695 23.255 47.4471 19.8487 48.7635 16.6706C50.0799 13.4924 52.0094 10.6047 54.4418 8.17231C56.8743 5.73989 59.762 3.81039 62.9401 2.49397C66.1182 1.17755 69.5245 0.5 72.9644 0.5C76.4044 0.5 79.8107 1.17755 82.9888 2.49397C86.1669 3.81039 89.0546 5.73989 91.487 8.17231C93.9195 10.6047 95.849 13.4924 97.1654 16.6706C98.4818 19.8487 99.1594 23.255 99.1594 26.6949" stroke="#6E67D2"/>
<circle cx="98.543" cy="23.5762" r="3.5" stroke="#6E67D2"/>
<path d="M92.7228 56.1657C93.124 54.0396 94.9813 52.5 97.1448 52.5H151.855C154.019 52.5 155.876 54.0396 156.277 56.1657L164.39 99.1657C164.913 101.936 162.788 104.5 159.968 104.5H89.0316C86.2119 104.5 84.0868 101.936 84.6096 99.1657L92.7228 56.1657Z" fill="#F5F6F9" stroke="#6E67D2"/>
<circle cx="110" cy="61" r="3.5" stroke="#6E67D2"/>
<path d="M109.5 64.5C109.5 62.5302 109.888 60.5796 110.642 58.7597C111.396 56.9399 112.501 55.2863 113.893 53.8934C115.286 52.5005 116.94 51.3956 118.76 50.6418C120.58 49.888 122.53 49.5 124.5 49.5C126.47 49.5 128.42 49.888 130.24 50.6418C132.06 51.3956 133.714 52.5005 135.107 53.8934C136.499 55.2863 137.604 56.9399 138.358 58.7597C139.112 60.5796 139.5 62.5302 139.5 64.5" stroke="#6E67D2"/>
<circle cx="139" cy="61" r="3.5" stroke="#6E67D2"/>
</svg>
