<svg width="165" height="105" viewBox="0 0 165 105" fill="none" xmlns="http://www.w3.org/2000/svg">
<rect x="0.5" y="0.5" width="164" height="104" rx="9.5" stroke="#6E67D2"/>
<circle cx="14" cy="14" r="3.5" stroke="#6E67D2"/>
<circle cx="25" cy="14" r="3.5" stroke="#6E67D2"/>
<circle cx="36" cy="14" r="3.5" stroke="#6E67D2"/>
<path d="M50.7228 33.1657C51.124 31.0396 52.9813 29.5 55.1448 29.5H109.855C112.019 29.5 113.876 31.0396 114.277 33.1657L122.39 76.1657C122.913 78.9365 120.788 81.5 117.968 81.5H47.0316C44.2119 81.5 42.0868 78.9365 42.6096 76.1657L50.7228 33.1657Z" stroke="#6E67D2"/>
<circle cx="67" cy="37" r="3.5" stroke="#6E67D2"/>
<path d="M66.5 40.5C66.5 38.3989 66.9139 36.3183 67.7179 34.3771C68.522 32.4359 69.7006 30.672 71.1863 29.1863C72.672 27.7006 74.4359 26.522 76.3771 25.7179C78.3183 24.9139 80.3988 24.5 82.5 24.5C84.6011 24.5 86.6817 24.9139 88.6229 25.7179C90.5641 26.522 92.328 27.7006 93.8137 29.1863C95.2994 30.672 96.478 32.4359 97.2821 34.3771C98.0861 36.3183 98.5 38.3989 98.5 40.5" stroke="#6E67D2"/>
<circle cx="98" cy="37" r="3.5" stroke="#6E67D2"/>
</svg>
