<svg width="18" height="18" viewBox="0 0 18 18" fill="none" xmlns="http://www.w3.org/2000/svg">
<path d="M6.37858 13.9749C10.2757 17.8721 13.271 18.8501 16.8013 15.3198C17.3538 14.7526 17.8706 14.0356 17.1375 13.3025L14.2796 11.1171C13.3778 10.6319 13.0254 10.9769 12.5985 11.4533C11.0384 13.1948 9.35516 12.6169 8.22774 11.4533L6.54667 9.77224C5.3831 8.64484 4.8052 6.96157 6.54667 5.40144C7.0231 4.97463 7.36809 4.62225 6.88288 3.72036L4.69748 0.862536C3.96439 0.129438 3.24745 0.646161 2.6802 1.19875C-0.850051 4.72901 0.127932 7.72431 4.02506 11.6214L6.37858 13.9749Z" stroke="white"/>
</svg>
