<svg width="13" height="19" viewBox="0 0 13 19" fill="none" xmlns="http://www.w3.org/2000/svg">
<path d="M6.49991 17L6.09186 17.289L6.49991 17.8652L6.90796 17.289L6.49991 17ZM6.49991 17C6.90796 17.289 6.90801 17.2889 6.90807 17.2888L6.90831 17.2885L6.90916 17.2873L6.91235 17.2827L6.92456 17.2654L6.97142 17.1986C7.0123 17.1402 7.07201 17.0544 7.14787 16.9444C7.29957 16.7244 7.51592 16.4074 7.7754 16.0179C8.29407 15.2395 8.98641 14.1697 9.6795 13.0064C10.3716 11.8448 11.0696 10.5813 11.5962 9.41708C12.113 8.27446 12.5 7.15338 12.5 6.30399C12.5 3.08161 9.79638 0.5 6.49991 0.5C3.20343 0.5 0.5 3.08163 0.5 6.30399C0.5 7.15338 0.887016 8.27445 1.40379 9.41707C1.93034 10.5813 2.62835 11.8448 3.32041 13.0064C4.01348 14.1697 4.7058 15.2395 5.22445 16.0179C5.48392 16.4074 5.70027 16.7244 5.85196 16.9444C5.92782 17.0544 5.98753 17.1402 6.02841 17.1986L6.07526 17.2654L6.08747 17.2827L6.09066 17.2873L6.09151 17.2885L6.09175 17.2888C6.09182 17.2889 6.09186 17.289 6.49991 17ZM6.50026 8.51961C5.11476 8.51961 4.01811 7.43618 4.01811 6.14378C4.01811 4.8511 5.11472 3.76796 6.50026 3.76796C7.8856 3.76796 8.98224 4.85108 8.98224 6.14378C8.98224 7.43618 7.88541 8.51961 6.50026 8.51961Z" stroke="white"/>
</svg>
