<svg width="22" height="21" viewBox="0 0 22 21" fill="none" xmlns="http://www.w3.org/2000/svg">
<path fill-rule="evenodd" clip-rule="evenodd" d="M6.79252 9.26278C6.54795 8.03896 7.93385 7.38625 8.8306 6.81514C9.31975 6.48879 9.40127 5.99926 9.23823 5.50974C8.74909 4.12274 7.85233 2.89892 7.28166 1.51192C7.20013 1.26716 6.95557 1.10399 6.711 1.02239C4.34682 0.777632 2.63482 2.57256 2.14569 4.77544C0.678263 11.3025 10.6241 21.2562 17.2275 19.8692C19.4286 19.3797 21.2222 17.6663 20.9776 15.3003C20.8961 15.0555 20.733 14.8107 20.4884 14.7292C19.1026 14.1581 17.8797 13.2606 16.4938 12.771C16.0046 12.6079 15.5155 12.6895 15.1895 13.179C14.6188 14.0764 13.9666 15.4635 12.7437 15.2187C10.6241 14.8107 7.11862 11.3025 6.79252 9.26278Z" stroke="#6E67D2"/>
</svg>
